<svg xmlns="http://www.w3.org/2000/svg" width="751" height="165" viewBox="0 0 751 165"><rect width="100%" height="100%" fill="#FFFFFF"/><text x="8" y="17" fill="#22272E" font-family="Arial,sans-serif" font-size="12">WeRead 2026: 127h 52m, 83 active days</text><text x="44" y="34" fill="#667085" font-family="Arial,sans-serif" font-size="9">Jan</text><text x="96" y="34" fill="#667085" font-family="Arial,sans-serif" font-size="9">Feb</text><text x="148" y="34" fill="#667085" font-family="Arial,sans-serif" font-size="9">Mar</text><text x="213" y="34" fill="#667085" font-family="Arial,sans-serif" font-size="9">Apr</text><text x="265" y="34" fill="#667085" font-family="Arial,sans-serif" font-size="9">May</text><text x="330" y="34" fill="#667085" font-family="Arial,sans-serif" font-size="9">Jun</text><text x="382" y="34" fill="#667085" font-family="Arial,sans-serif" font-size="9">Jul</text><text x="434" y="34" fill="#667085" font-family="Arial,sans-serif" font-size="9">Aug</text><text x="499" y="34" fill="#667085" font-family="Arial,sans-serif" font-size="9">Sep</text><text x="551" y="34" fill="#667085" font-family="Arial,sans-serif" font-size="9">Oct</text><text x="603" y="34" fill="#667085" font-family="Arial,sans-serif" font-size="9">Nov</text><text x="668" y="34" fill="#667085" font-family="Arial,sans-serif" font-size="9">Dec</text><rect x="44" y="42" width="10" height="10" rx="2" fill="#FAFAFA"><title>2025-12-29: 0m</title></rect><rect x="44" y="55" width="10" height="10" rx="2" fill="#FAFAFA"><title>2025-12-30: 0m</title></rect><rect x="44" y="68" width="10" height="10" rx="2" fill="#FAFAFA"><title>2025-12-31: 0m</title></rect><rect x="44" y="81" width="10" height="10" rx="2" fill="#1F6F3A"><title>2026-01-01: 3h 57m</title></rect><rect x="44" y="94" width="10" height="10" rx="2" fill="#EDEFF2"><title>2026-01-02: 0m</title></rect><rect x="44" y="107" width="10" height="10" rx="2" fill="#3F9B57"><title>2026-01-03: 1h 10m</title></rect><rect x="44" y="120" width="10" height="10" rx="2" fill="#78C486"><title>2026-01-04: 44m</title></rect><rect x="57" y="42" width="10" height="10" rx="2" fill="#BFE7C4"><title>2026-01-05: 16m</title></rect><rect x="57" y="55" width="10" height="10" rx="2" fill="#BFE7C4"><title>2026-01-06: 1m</title></rect><rect x="57" y="68" width="10" height="10" rx="2" fill="#BFE7C4"><title>2026-01-07: 15m</title></rect><rect x="57" y="81" width="10" height="10" rx="2" fill="#BFE7C4"><title>2026-01-08: 3m</title></rect><rect x="57" y="94" width="10" height="10" rx="2" fill="#BFE7C4"><title>2026-01-09: 1m</title></rect><rect x="57" y="107" width="10" height="10" rx="2" fill="#BFE7C4"><title>2026-01-10: 28m</title></rect><rect x="57" y="120" width="10" height="10" rx="2" fill="#3F9B57"><title>2026-01-11: 1h 54m</title></rect><rect x="70" y="42" width="10" height="10" rx="2" fill="#BFE7C4"><title>2026-01-12: 7m</title></rect><rect x="70" y="55" width="10" height="10" rx="2" fill="#BFE7C4"><title>2026-01-13: 28m</title></rect><rect x="70" y="68" width="10" height="10" rx="2" fill="#BFE7C4"><title>2026-01-14: 26m</title></rect><rect x="70" y="81" width="10" height="10" rx="2" fill="#BFE7C4"><title>2026-01-15: 11m</title></rect><rect x="70" y="94" width="10" height="10" rx="2" fill="#BFE7C4"><title>2026-01-16: 1m</title></rect><rect x="70" y="107" width="10" height="10" rx="2" fill="#BFE7C4"><title>2026-01-17: 10m</title></rect><rect x="70" y="120" width="10" height="10" rx="2" fill="#BFE7C4"><title>2026-01-18: 2m</title></rect><rect x="83" y="42" width="10" height="10" rx="2" fill="#BFE7C4"><title>2026-01-19: 1m</title></rect><rect x="83" y="55" width="10" height="10" rx="2" fill="#BFE7C4"><title>2026-01-20: 7m</title></rect><rect x="83" y="68" width="10" height="10" rx="2" fill="#EDEFF2"><title>2026-01-21: 0m</title></rect><rect x="83" y="81" width="10" height="10" rx="2" fill="#EDEFF2"><title>2026-01-22: 0m</title></rect><rect x="83" y="94" width="10" height="10" rx="2" fill="#EDEFF2"><title>2026-01-23: 0m</title></rect><rect x="83" y="107" width="10" height="10" rx="2" fill="#EDEFF2"><title>2026-01-24: 0m</title></rect><rect x="83" y="120" width="10" height="10" rx="2" fill="#EDEFF2"><title>2026-01-25: 0m</title></rect><rect x="96" y="42" width="10" height="10" rx="2" fill="#EDEFF2"><title>2026-01-26: 0m</title></rect><rect x="96" y="55" width="10" height="10" rx="2" fill="#EDEFF2"><title>2026-01-27: 0m</title></rect><rect x="96" y="68" width="10" height="10" rx="2" fill="#EDEFF2"><title>2026-01-28: 0m</title></rect><rect x="96" y="81" width="10" height="10" rx="2" fill="#EDEFF2"><title>2026-01-29: 0m</title></rect><rect x="96" y="94" width="10" height="10" rx="2" fill="#EDEFF2"><title>2026-01-30: 0m</title></rect><rect x="96" y="107" width="10" height="10" rx="2" fill="#EDEFF2"><title>2026-01-31: 0m</title></rect><rect x="96" y="120" width="10" height="10" rx="2" fill="#EDEFF2"><title>2026-02-01: 0m</title></rect><rect x="109" y="42" width="10" height="10" rx="2" fill="#78C486"><title>2026-02-02: 46m</title></rect><rect x="109" y="55" width="10" height="10" rx="2" fill="#78C486"><title>2026-02-03: 40m</title></rect><rect x="109" y="68" width="10" height="10" rx="2" fill="#BFE7C4"><title>2026-02-04: 2m</title></rect><rect x="109" y="81" width="10" height="10" rx="2" fill="#EDEFF2"><title>2026-02-05: 0m</title></rect><rect x="109" y="94" width="10" height="10" rx="2" fill="#78C486"><title>2026-02-06: 48m</title></rect><rect x="109" y="107" width="10" height="10" rx="2" fill="#1F6F3A"><title>2026-02-07: 2h 25m</title></rect><rect x="109" y="120" width="10" height="10" rx="2" fill="#BFE7C4"><title>2026-02-08: 20m</title></rect><rect x="122" y="42" width="10" height="10" rx="2" fill="#EDEFF2"><title>2026-02-09: 0m</title></rect><rect x="122" y="55" width="10" height="10" rx="2" fill="#EDEFF2"><title>2026-02-10: 0m</title></rect><rect x="122" y="68" width="10" height="10" rx="2" fill="#EDEFF2"><title>2026-02-11: 0m</title></rect><rect x="122" y="81" width="10" height="10" rx="2" fill="#EDEFF2"><title>2026-02-12: 0m</title></rect><rect x="122" y="94" width="10" height="10" rx="2" fill="#EDEFF2"><title>2026-02-13: 0m</title></rect><rect x="122" y="107" width="10" height="10" rx="2" fill="#BFE7C4"><title>2026-02-14: 1m</title></rect><rect x="122" y="120" width="10" height="10" rx="2" fill="#EDEFF2"><title>2026-02-15: 0m</title></rect><rect x="135" y="42" width="10" height="10" rx="2" fill="#78C486"><title>2026-02-16: 33m</title></rect><rect x="135" y="55" width="10" height="10" rx="2" fill="#BFE7C4"><title>2026-02-17: 21m</title></rect><rect x="135" y="68" width="10" height="10" rx="2" fill="#1F6F3A"><title>2026-02-18: 5h 29m</title></rect><rect x="135" y="81" width="10" height="10" rx="2" fill="#1F6F3A"><title>2026-02-19: 7h 45m</title></rect><rect x="135" y="94" width="10" height="10" rx="2" fill="#1F6F3A"><title>2026-02-20: 11h 44m</title></rect><rect x="135" y="107" width="10" height="10" rx="2" fill="#1F6F3A"><title>2026-02-21: 3h 54m</title></rect><rect x="135" y="120" width="10" height="10" rx="2" fill="#1F6F3A"><title>2026-02-22: 3h 30m</title></rect><rect x="148" y="42" width="10" height="10" rx="2" fill="#1F6F3A"><title>2026-02-23: 3h 58m</title></rect><rect x="148" y="55" width="10" height="10" rx="2" fill="#1F6F3A"><title>2026-02-24: 9h 17m</title></rect><rect x="148" y="68" width="10" height="10" rx="2" fill="#1F6F3A"><title>2026-02-25: 6h 28m</title></rect><rect x="148" y="81" width="10" height="10" rx="2" fill="#1F6F3A"><title>2026-02-26: 4h 50m</title></rect><rect x="148" y="94" width="10" height="10" rx="2" fill="#1F6F3A"><title>2026-02-27: 4h 30m</title></rect><rect x="148" y="107" width="10" height="10" rx="2" fill="#3F9B57"><title>2026-02-28: 1h 51m</title></rect><rect x="148" y="120" width="10" height="10" rx="2" fill="#1F6F3A"><title>2026-03-01: 3h 6m</title></rect><rect x="161" y="42" width="10" height="10" rx="2" fill="#78C486"><title>2026-03-02: 33m</title></rect><rect x="161" y="55" width="10" height="10" rx="2" fill="#BFE7C4"><title>2026-03-03: 27m</title></rect><rect x="161" y="68" width="10" height="10" rx="2" fill="#78C486"><title>2026-03-04: 33m</title></rect><rect x="161" y="81" width="10" height="10" rx="2" fill="#BFE7C4"><title>2026-03-05: 20m</title></rect><rect x="161" y="94" width="10" height="10" rx="2" fill="#78C486"><title>2026-03-06: 32m</title></rect><rect x="161" y="107" width="10" height="10" rx="2" fill="#BFE7C4"><title>2026-03-07: 6m</title></rect><rect x="161" y="120" width="10" height="10" rx="2" fill="#BFE7C4"><title>2026-03-08: 23m</title></rect><rect x="174" y="42" width="10" height="10" rx="2" fill="#EDEFF2"><title>2026-03-09: 0m</title></rect><rect x="174" y="55" width="10" height="10" rx="2" fill="#BFE7C4"><title>2026-03-10: 1m</title></rect><rect x="174" y="68" width="10" height="10" rx="2" fill="#3F9B57"><title>2026-03-11: 1h 54m</title></rect><rect x="174" y="81" width="10" height="10" rx="2" fill="#78C486"><title>2026-03-12: 43m</title></rect><rect x="174" y="94" width="10" height="10" rx="2" fill="#BFE7C4"><title>2026-03-13: 3m</title></rect><rect x="174" y="107" width="10" height="10" rx="2" fill="#BFE7C4"><title>2026-03-14: 9m</title></rect><rect x="174" y="120" width="10" height="10" rx="2" fill="#EDEFF2"><title>2026-03-15: 0m</title></rect><rect x="187" y="42" width="10" height="10" rx="2" fill="#78C486"><title>2026-03-16: 50m</title></rect><rect x="187" y="55" width="10" height="10" rx="2" fill="#78C486"><title>2026-03-17: 52m</title></rect><rect x="187" y="68" width="10" height="10" rx="2" fill="#1F6F3A"><title>2026-03-18: 2h 16m</title></rect><rect x="187" y="81" width="10" height="10" rx="2" fill="#EDEFF2"><title>2026-03-19: 0m</title></rect><rect x="187" y="94" width="10" height="10" rx="2" fill="#BFE7C4"><title>2026-03-20: 10m</title></rect><rect x="187" y="107" width="10" height="10" rx="2" fill="#BFE7C4"><title>2026-03-21: 17m</title></rect><rect x="187" y="120" width="10" height="10" rx="2" fill="#BFE7C4"><title>2026-03-22: 5m</title></rect><rect x="200" y="42" width="10" height="10" rx="2" fill="#BFE7C4"><title>2026-03-23: 27m</title></rect><rect x="200" y="55" width="10" height="10" rx="2" fill="#BFE7C4"><title>2026-03-24: 1m</title></rect><rect x="200" y="68" width="10" height="10" rx="2" fill="#78C486"><title>2026-03-25: 52m</title></rect><rect x="200" y="81" width="10" height="10" rx="2" fill="#BFE7C4"><title>2026-03-26: 15m</title></rect><rect x="200" y="94" width="10" height="10" rx="2" fill="#EDEFF2"><title>2026-03-27: 0m</title></rect><rect x="200" y="107" width="10" height="10" rx="2" fill="#EDEFF2"><title>2026-03-28: 0m</title></rect><rect x="200" y="120" width="10" height="10" rx="2" fill="#EDEFF2"><title>2026-03-29: 0m</title></rect><rect x="213" y="42" width="10" height="10" rx="2" fill="#EDEFF2"><title>2026-03-30: 0m</title></rect><rect x="213" y="55" width="10" height="10" rx="2" fill="#EDEFF2"><title>2026-03-31: 0m</title></rect><rect x="213" y="68" width="10" height="10" rx="2" fill="#EDEFF2"><title>2026-04-01: 0m</title></rect><rect x="213" y="81" width="10" height="10" rx="2" fill="#EDEFF2"><title>2026-04-02: 0m</title></rect><rect x="213" y="94" width="10" height="10" rx="2" fill="#EDEFF2"><title>2026-04-03: 0m</title></rect><rect x="213" y="107" width="10" height="10" rx="2" fill="#EDEFF2"><title>2026-04-04: 0m</title></rect><rect x="213" y="120" width="10" height="10" rx="2" fill="#EDEFF2"><title>2026-04-05: 0m</title></rect><rect x="226" y="42" width="10" height="10" rx="2" fill="#EDEFF2"><title>2026-04-06: 0m</title></rect><rect x="226" y="55" width="10" height="10" rx="2" fill="#EDEFF2"><title>2026-04-07: 0m</title></rect><rect x="226" y="68" width="10" height="10" rx="2" fill="#EDEFF2"><title>2026-04-08: 0m</title></rect><rect x="226" y="81" width="10" height="10" rx="2" fill="#BFE7C4"><title>2026-04-09: 1m</title></rect><rect x="226" y="94" width="10" height="10" rx="2" fill="#EDEFF2"><title>2026-04-10: 0m</title></rect><rect x="226" y="107" width="10" height="10" rx="2" fill="#EDEFF2"><title>2026-04-11: 0m</title></rect><rect x="226" y="120" width="10" height="10" rx="2" fill="#EDEFF2"><title>2026-04-12: 0m</title></rect><rect x="239" y="42" width="10" height="10" rx="2" fill="#EDEFF2"><title>2026-04-13: 0m</title></rect><rect x="239" y="55" width="10" height="10" rx="2" fill="#EDEFF2"><title>2026-04-14: 0m</title></rect><rect x="239" y="68" width="10" height="10" rx="2" fill="#EDEFF2"><title>2026-04-15: 0m</title></rect><rect x="239" y="81" width="10" height="10" rx="2" fill="#EDEFF2"><title>2026-04-16: 0m</title></rect><rect x="239" y="94" width="10" height="10" rx="2" fill="#EDEFF2"><title>2026-04-17: 0m</title></rect><rect x="239" y="107" width="10" height="10" rx="2" fill="#EDEFF2"><title>2026-04-18: 0m</title></rect><rect x="239" y="120" width="10" height="10" rx="2" fill="#EDEFF2"><title>2026-04-19: 0m</title></rect><rect x="252" y="42" width="10" height="10" rx="2" fill="#EDEFF2"><title>2026-04-20: 0m</title></rect><rect x="252" y="55" width="10" height="10" rx="2" fill="#EDEFF2"><title>2026-04-21: 0m</title></rect><rect x="252" y="68" width="10" height="10" rx="2" fill="#EDEFF2"><title>2026-04-22: 0m</title></rect><rect x="252" y="81" width="10" height="10" rx="2" fill="#EDEFF2"><title>2026-04-23: 0m</title></rect><rect x="252" y="94" width="10" height="10" rx="2" fill="#EDEFF2"><title>2026-04-24: 0m</title></rect><rect x="252" y="107" width="10" height="10" rx="2" fill="#EDEFF2"><title>2026-04-25: 0m</title></rect><rect x="252" y="120" width="10" height="10" rx="2" fill="#EDEFF2"><title>2026-04-26: 0m</title></rect><rect x="265" y="42" width="10" height="10" rx="2" fill="#EDEFF2"><title>2026-04-27: 0m</title></rect><rect x="265" y="55" width="10" height="10" rx="2" fill="#78C486"><title>2026-04-28: 33m</title></rect><rect x="265" y="68" width="10" height="10" rx="2" fill="#EDEFF2"><title>2026-04-29: 0m</title></rect><rect x="265" y="81" width="10" height="10" rx="2" fill="#EDEFF2"><title>2026-04-30: 0m</title></rect><rect x="265" y="94" width="10" height="10" rx="2" fill="#BFE7C4"><title>2026-05-01: 4m</title></rect><rect x="265" y="107" width="10" height="10" rx="2" fill="#3F9B57"><title>2026-05-02: 1h 51m</title></rect><rect x="265" y="120" width="10" height="10" rx="2" fill="#1F6F3A"><title>2026-05-03: 5h 10m</title></rect><rect x="278" y="42" width="10" height="10" rx="2" fill="#1F6F3A"><title>2026-05-04: 6h 25m</title></rect><rect x="278" y="55" width="10" height="10" rx="2" fill="#3F9B57"><title>2026-05-05: 1h 28m</title></rect><rect x="278" y="68" width="10" height="10" rx="2" fill="#78C486"><title>2026-05-06: 55m</title></rect><rect x="278" y="81" width="10" height="10" rx="2" fill="#3F9B57"><title>2026-05-07: 1h 59m</title></rect><rect x="278" y="94" width="10" height="10" rx="2" fill="#3F9B57"><title>2026-05-08: 1h 54m</title></rect><rect x="278" y="107" width="10" height="10" rx="2" fill="#EDEFF2"><title>2026-05-09: 0m</title></rect><rect x="278" y="120" width="10" height="10" rx="2" fill="#1F6F3A"><title>2026-05-10: 5h 40m</title></rect><rect x="291" y="42" width="10" height="10" rx="2" fill="#3F9B57"><title>2026-05-11: 1h 30m</title></rect><rect x="291" y="55" width="10" height="10" rx="2" fill="#BFE7C4"><title>2026-05-12: 4m</title></rect><rect x="291" y="68" width="10" height="10" rx="2" fill="#78C486"><title>2026-05-13: 30m</title></rect><rect x="291" y="81" width="10" height="10" rx="2" fill="#BFE7C4"><title>2026-05-14: 15m</title></rect><rect x="291" y="94" width="10" height="10" rx="2" fill="#BFE7C4"><title>2026-05-15: 22m</title></rect><rect x="291" y="107" width="10" height="10" rx="2" fill="#3F9B57"><title>2026-05-16: 1h 4m</title></rect><rect x="291" y="120" width="10" height="10" rx="2" fill="#BFE7C4"><title>2026-05-17: 11m</title></rect><rect x="304" y="42" width="10" height="10" rx="2" fill="#BFE7C4"><title>2026-05-18: 3m</title></rect><rect x="304" y="55" width="10" height="10" rx="2" fill="#78C486"><title>2026-05-19: 31m</title></rect><rect x="304" y="68" width="10" height="10" rx="2" fill="#1F6F3A"><title>2026-05-20: 2h 10m</title></rect><rect x="304" y="81" width="10" height="10" rx="2" fill="#EDEFF2"><title>2026-05-21: 0m</title></rect><rect x="304" y="94" width="10" height="10" rx="2" fill="#EDEFF2"><title>2026-05-22: 0m</title></rect><rect x="304" y="107" width="10" height="10" rx="2" fill="#EDEFF2"><title>2026-05-23: 0m</title></rect><rect x="304" y="120" width="10" height="10" rx="2" fill="#EDEFF2"><title>2026-05-24: 0m</title></rect><rect x="317" y="42" width="10" height="10" rx="2" fill="#EDEFF2"><title>2026-05-25: 0m</title></rect><rect x="317" y="55" width="10" height="10" rx="2" fill="#EDEFF2"><title>2026-05-26: 0m</title></rect><rect x="317" y="68" width="10" height="10" rx="2" fill="#EDEFF2"><title>2026-05-27: 0m</title></rect><rect x="317" y="81" width="10" height="10" rx="2" fill="#EDEFF2"><title>2026-05-28: 0m</title></rect><rect x="317" y="94" width="10" height="10" rx="2" fill="#EDEFF2"><title>2026-05-29: 0m</title></rect><rect x="317" y="107" width="10" height="10" rx="2" fill="#EDEFF2"><title>2026-05-30: 0m</title></rect><rect x="317" y="120" width="10" height="10" rx="2" fill="#EDEFF2"><title>2026-05-31: 0m</title></rect><rect x="330" y="42" width="10" height="10" rx="2" fill="#EDEFF2"><title>2026-06-01: 0m</title></rect><rect x="330" y="55" width="10" height="10" rx="2" fill="#EDEFF2"><title>2026-06-02: 0m</title></rect><rect x="330" y="68" width="10" height="10" rx="2" fill="#EDEFF2"><title>2026-06-03: 0m</title></rect><rect x="330" y="81" width="10" height="10" rx="2" fill="#EDEFF2"><title>2026-06-04: 0m</title></rect><rect x="330" y="94" width="10" height="10" rx="2" fill="#EDEFF2"><title>2026-06-05: 0m</title></rect><rect x="330" y="107" width="10" height="10" rx="2" fill="#EDEFF2"><title>2026-06-06: 0m</title></rect><rect x="330" y="120" width="10" height="10" rx="2" fill="#EDEFF2"><title>2026-06-07: 0m</title></rect><rect x="343" y="42" width="10" height="10" rx="2" fill="#EDEFF2"><title>2026-06-08: 0m</title></rect><rect x="343" y="55" width="10" height="10" rx="2" fill="#EDEFF2"><title>2026-06-09: 0m</title></rect><rect x="343" y="68" width="10" height="10" rx="2" fill="#EDEFF2"><title>2026-06-10: 0m</title></rect><rect x="343" y="81" width="10" height="10" rx="2" fill="#EDEFF2"><title>2026-06-11: 0m</title></rect><rect x="343" y="94" width="10" height="10" rx="2" fill="#EDEFF2"><title>2026-06-12: 0m</title></rect><rect x="343" y="107" width="10" height="10" rx="2" fill="#EDEFF2"><title>2026-06-13: 0m</title></rect><rect x="343" y="120" width="10" height="10" rx="2" fill="#EDEFF2"><title>2026-06-14: 0m</title></rect><rect x="356" y="42" width="10" height="10" rx="2" fill="#EDEFF2"><title>2026-06-15: 0m</title></rect><rect x="356" y="55" width="10" height="10" rx="2" fill="#EDEFF2"><title>2026-06-16: 0m</title></rect><rect x="356" y="68" width="10" height="10" rx="2" fill="#EDEFF2"><title>2026-06-17: 0m</title></rect><rect x="356" y="81" width="10" height="10" rx="2" fill="#EDEFF2"><title>2026-06-18: 0m</title></rect><rect x="356" y="94" width="10" height="10" rx="2" fill="#EDEFF2"><title>2026-06-19: 0m</title></rect><rect x="356" y="107" width="10" height="10" rx="2" fill="#EDEFF2"><title>2026-06-20: 0m</title></rect><rect x="356" y="120" width="10" height="10" rx="2" fill="#EDEFF2"><title>2026-06-21: 0m</title></rect><rect x="369" y="42" width="10" height="10" rx="2" fill="#EDEFF2"><title>2026-06-22: 0m</title></rect><rect x="369" y="55" width="10" height="10" rx="2" fill="#EDEFF2"><title>2026-06-23: 0m</title></rect><rect x="369" y="68" width="10" height="10" rx="2" fill="#EDEFF2"><title>2026-06-24: 0m</title></rect><rect x="369" y="81" width="10" height="10" rx="2" fill="#EDEFF2"><title>2026-06-25: 0m</title></rect><rect x="369" y="94" width="10" height="10" rx="2" fill="#EDEFF2"><title>2026-06-26: 0m</title></rect><rect x="369" y="107" width="10" height="10" rx="2" fill="#EDEFF2"><title>2026-06-27: 0m</title></rect><rect x="369" y="120" width="10" height="10" rx="2" fill="#EDEFF2"><title>2026-06-28: 0m</title></rect><rect x="382" y="42" width="10" height="10" rx="2" fill="#EDEFF2"><title>2026-06-29: 0m</title></rect><rect x="382" y="55" width="10" height="10" rx="2" fill="#EDEFF2"><title>2026-06-30: 0m</title></rect><rect x="382" y="68" width="10" height="10" rx="2" fill="#EDEFF2"><title>2026-07-01: 0m</title></rect><rect x="382" y="81" width="10" height="10" rx="2" fill="#EDEFF2"><title>2026-07-02: 0m</title></rect><rect x="382" y="94" width="10" height="10" rx="2" fill="#EDEFF2"><title>2026-07-03: 0m</title></rect><rect x="382" y="107" width="10" height="10" rx="2" fill="#EDEFF2"><title>2026-07-04: 0m</title></rect><rect x="382" y="120" width="10" height="10" rx="2" fill="#EDEFF2"><title>2026-07-05: 0m</title></rect><rect x="395" y="42" width="10" height="10" rx="2" fill="#EDEFF2"><title>2026-07-06: 0m</title></rect><rect x="395" y="55" width="10" height="10" rx="2" fill="#EDEFF2"><title>2026-07-07: 0m</title></rect><rect x="395" y="68" width="10" height="10" rx="2" fill="#EDEFF2"><title>2026-07-08: 0m</title></rect><rect x="395" y="81" width="10" height="10" rx="2" fill="#EDEFF2"><title>2026-07-09: 0m</title></rect><rect x="395" y="94" width="10" height="10" rx="2" fill="#EDEFF2"><title>2026-07-10: 0m</title></rect><rect x="395" y="107" width="10" height="10" rx="2" fill="#EDEFF2"><title>2026-07-11: 0m</title></rect><rect x="395" y="120" width="10" height="10" rx="2" fill="#EDEFF2"><title>2026-07-12: 0m</title></rect><rect x="408" y="42" width="10" height="10" rx="2" fill="#EDEFF2"><title>2026-07-13: 0m</title></rect><rect x="408" y="55" width="10" height="10" rx="2" fill="#EDEFF2"><title>2026-07-14: 0m</title></rect><rect x="408" y="68" width="10" height="10" rx="2" fill="#EDEFF2"><title>2026-07-15: 0m</title></rect><rect x="408" y="81" width="10" height="10" rx="2" fill="#EDEFF2"><title>2026-07-16: 0m</title></rect><rect x="408" y="94" width="10" height="10" rx="2" fill="#EDEFF2"><title>2026-07-17: 0m</title></rect><rect x="408" y="107" width="10" height="10" rx="2" fill="#EDEFF2"><title>2026-07-18: 0m</title></rect><rect x="408" y="120" width="10" height="10" rx="2" fill="#EDEFF2"><title>2026-07-19: 0m</title></rect><rect x="421" y="42" width="10" height="10" rx="2" fill="#EDEFF2"><title>2026-07-20: 0m</title></rect><rect x="421" y="55" width="10" height="10" rx="2" fill="#EDEFF2"><title>2026-07-21: 0m</title></rect><rect x="421" y="68" width="10" height="10" rx="2" fill="#EDEFF2"><title>2026-07-22: 0m</title></rect><rect x="421" y="81" width="10" height="10" rx="2" fill="#EDEFF2"><title>2026-07-23: 0m</title></rect><rect x="421" y="94" width="10" height="10" rx="2" fill="#EDEFF2"><title>2026-07-24: 0m</title></rect><rect x="421" y="107" width="10" height="10" rx="2" fill="#EDEFF2"><title>2026-07-25: 0m</title></rect><rect x="421" y="120" width="10" height="10" rx="2" fill="#EDEFF2"><title>2026-07-26: 0m</title></rect><rect x="434" y="42" width="10" height="10" rx="2" fill="#EDEFF2"><title>2026-07-27: 0m</title></rect><rect x="434" y="55" width="10" height="10" rx="2" fill="#EDEFF2"><title>2026-07-28: 0m</title></rect><rect x="434" y="68" width="10" height="10" rx="2" fill="#EDEFF2"><title>2026-07-29: 0m</title></rect><rect x="434" y="81" width="10" height="10" rx="2" fill="#EDEFF2"><title>2026-07-30: 0m</title></rect><rect x="434" y="94" width="10" height="10" rx="2" fill="#EDEFF2"><title>2026-07-31: 0m</title></rect><rect x="434" y="107" width="10" height="10" rx="2" fill="#EDEFF2"><title>2026-08-01: 0m</title></rect><rect x="434" y="120" width="10" height="10" rx="2" fill="#EDEFF2"><title>2026-08-02: 0m</title></rect><rect x="447" y="42" width="10" height="10" rx="2" fill="#EDEFF2"><title>2026-08-03: 0m</title></rect><rect x="447" y="55" width="10" height="10" rx="2" fill="#EDEFF2"><title>2026-08-04: 0m</title></rect><rect x="447" y="68" width="10" height="10" rx="2" fill="#EDEFF2"><title>2026-08-05: 0m</title></rect><rect x="447" y="81" width="10" height="10" rx="2" fill="#EDEFF2"><title>2026-08-06: 0m</title></rect><rect x="447" y="94" width="10" height="10" rx="2" fill="#EDEFF2"><title>2026-08-07: 0m</title></rect><rect x="447" y="107" width="10" height="10" rx="2" fill="#EDEFF2"><title>2026-08-08: 0m</title></rect><rect x="447" y="120" width="10" height="10" rx="2" fill="#EDEFF2"><title>2026-08-09: 0m</title></rect><rect x="460" y="42" width="10" height="10" rx="2" fill="#EDEFF2"><title>2026-08-10: 0m</title></rect><rect x="460" y="55" width="10" height="10" rx="2" fill="#EDEFF2"><title>2026-08-11: 0m</title></rect><rect x="460" y="68" width="10" height="10" rx="2" fill="#EDEFF2"><title>2026-08-12: 0m</title></rect><rect x="460" y="81" width="10" height="10" rx="2" fill="#EDEFF2"><title>2026-08-13: 0m</title></rect><rect x="460" y="94" width="10" height="10" rx="2" fill="#EDEFF2"><title>2026-08-14: 0m</title></rect><rect x="460" y="107" width="10" height="10" rx="2" fill="#EDEFF2"><title>2026-08-15: 0m</title></rect><rect x="460" y="120" width="10" height="10" rx="2" fill="#EDEFF2"><title>2026-08-16: 0m</title></rect><rect x="473" y="42" width="10" height="10" rx="2" fill="#EDEFF2"><title>2026-08-17: 0m</title></rect><rect x="473" y="55" width="10" height="10" rx="2" fill="#EDEFF2"><title>2026-08-18: 0m</title></rect><rect x="473" y="68" width="10" height="10" rx="2" fill="#EDEFF2"><title>2026-08-19: 0m</title></rect><rect x="473" y="81" width="10" height="10" rx="2" fill="#EDEFF2"><title>2026-08-20: 0m</title></rect><rect x="473" y="94" width="10" height="10" rx="2" fill="#EDEFF2"><title>2026-08-21: 0m</title></rect><rect x="473" y="107" width="10" height="10" rx="2" fill="#EDEFF2"><title>2026-08-22: 0m</title></rect><rect x="473" y="120" width="10" height="10" rx="2" fill="#EDEFF2"><title>2026-08-23: 0m</title></rect><rect x="486" y="42" width="10" height="10" rx="2" fill="#EDEFF2"><title>2026-08-24: 0m</title></rect><rect x="486" y="55" width="10" height="10" rx="2" fill="#EDEFF2"><title>2026-08-25: 0m</title></rect><rect x="486" y="68" width="10" height="10" rx="2" fill="#EDEFF2"><title>2026-08-26: 0m</title></rect><rect x="486" y="81" width="10" height="10" rx="2" fill="#EDEFF2"><title>2026-08-27: 0m</title></rect><rect x="486" y="94" width="10" height="10" rx="2" fill="#EDEFF2"><title>2026-08-28: 0m</title></rect><rect x="486" y="107" width="10" height="10" rx="2" fill="#EDEFF2"><title>2026-08-29: 0m</title></rect><rect x="486" y="120" width="10" height="10" rx="2" fill="#EDEFF2"><title>2026-08-30: 0m</title></rect><rect x="499" y="42" width="10" height="10" rx="2" fill="#EDEFF2"><title>2026-08-31: 0m</title></rect><rect x="499" y="55" width="10" height="10" rx="2" fill="#EDEFF2"><title>2026-09-01: 0m</title></rect><rect x="499" y="68" width="10" height="10" rx="2" fill="#EDEFF2"><title>2026-09-02: 0m</title></rect><rect x="499" y="81" width="10" height="10" rx="2" fill="#EDEFF2"><title>2026-09-03: 0m</title></rect><rect x="499" y="94" width="10" height="10" rx="2" fill="#EDEFF2"><title>2026-09-04: 0m</title></rect><rect x="499" y="107" width="10" height="10" rx="2" fill="#EDEFF2"><title>2026-09-05: 0m</title></rect><rect x="499" y="120" width="10" height="10" rx="2" fill="#EDEFF2"><title>2026-09-06: 0m</title></rect><rect x="512" y="42" width="10" height="10" rx="2" fill="#EDEFF2"><title>2026-09-07: 0m</title></rect><rect x="512" y="55" width="10" height="10" rx="2" fill="#EDEFF2"><title>2026-09-08: 0m</title></rect><rect x="512" y="68" width="10" height="10" rx="2" fill="#EDEFF2"><title>2026-09-09: 0m</title></rect><rect x="512" y="81" width="10" height="10" rx="2" fill="#EDEFF2"><title>2026-09-10: 0m</title></rect><rect x="512" y="94" width="10" height="10" rx="2" fill="#EDEFF2"><title>2026-09-11: 0m</title></rect><rect x="512" y="107" width="10" height="10" rx="2" fill="#EDEFF2"><title>2026-09-12: 0m</title></rect><rect x="512" y="120" width="10" height="10" rx="2" fill="#EDEFF2"><title>2026-09-13: 0m</title></rect><rect x="525" y="42" width="10" height="10" rx="2" fill="#EDEFF2"><title>2026-09-14: 0m</title></rect><rect x="525" y="55" width="10" height="10" rx="2" fill="#EDEFF2"><title>2026-09-15: 0m</title></rect><rect x="525" y="68" width="10" height="10" rx="2" fill="#EDEFF2"><title>2026-09-16: 0m</title></rect><rect x="525" y="81" width="10" height="10" rx="2" fill="#EDEFF2"><title>2026-09-17: 0m</title></rect><rect x="525" y="94" width="10" height="10" rx="2" fill="#EDEFF2"><title>2026-09-18: 0m</title></rect><rect x="525" y="107" width="10" height="10" rx="2" fill="#EDEFF2"><title>2026-09-19: 0m</title></rect><rect x="525" y="120" width="10" height="10" rx="2" fill="#EDEFF2"><title>2026-09-20: 0m</title></rect><rect x="538" y="42" width="10" height="10" rx="2" fill="#EDEFF2"><title>2026-09-21: 0m</title></rect><rect x="538" y="55" width="10" height="10" rx="2" fill="#EDEFF2"><title>2026-09-22: 0m</title></rect><rect x="538" y="68" width="10" height="10" rx="2" fill="#EDEFF2"><title>2026-09-23: 0m</title></rect><rect x="538" y="81" width="10" height="10" rx="2" fill="#EDEFF2"><title>2026-09-24: 0m</title></rect><rect x="538" y="94" width="10" height="10" rx="2" fill="#EDEFF2"><title>2026-09-25: 0m</title></rect><rect x="538" y="107" width="10" height="10" rx="2" fill="#EDEFF2"><title>2026-09-26: 0m</title></rect><rect x="538" y="120" width="10" height="10" rx="2" fill="#EDEFF2"><title>2026-09-27: 0m</title></rect><rect x="551" y="42" width="10" height="10" rx="2" fill="#EDEFF2"><title>2026-09-28: 0m</title></rect><rect x="551" y="55" width="10" height="10" rx="2" fill="#EDEFF2"><title>2026-09-29: 0m</title></rect><rect x="551" y="68" width="10" height="10" rx="2" fill="#EDEFF2"><title>2026-09-30: 0m</title></rect><rect x="551" y="81" width="10" height="10" rx="2" fill="#EDEFF2"><title>2026-10-01: 0m</title></rect><rect x="551" y="94" width="10" height="10" rx="2" fill="#EDEFF2"><title>2026-10-02: 0m</title></rect><rect x="551" y="107" width="10" height="10" rx="2" fill="#EDEFF2"><title>2026-10-03: 0m</title></rect><rect x="551" y="120" width="10" height="10" rx="2" fill="#EDEFF2"><title>2026-10-04: 0m</title></rect><rect x="564" y="42" width="10" height="10" rx="2" fill="#EDEFF2"><title>2026-10-05: 0m</title></rect><rect x="564" y="55" width="10" height="10" rx="2" fill="#EDEFF2"><title>2026-10-06: 0m</title></rect><rect x="564" y="68" width="10" height="10" rx="2" fill="#EDEFF2"><title>2026-10-07: 0m</title></rect><rect x="564" y="81" width="10" height="10" rx="2" fill="#EDEFF2"><title>2026-10-08: 0m</title></rect><rect x="564" y="94" width="10" height="10" rx="2" fill="#EDEFF2"><title>2026-10-09: 0m</title></rect><rect x="564" y="107" width="10" height="10" rx="2" fill="#EDEFF2"><title>2026-10-10: 0m</title></rect><rect x="564" y="120" width="10" height="10" rx="2" fill="#EDEFF2"><title>2026-10-11: 0m</title></rect><rect x="577" y="42" width="10" height="10" rx="2" fill="#EDEFF2"><title>2026-10-12: 0m</title></rect><rect x="577" y="55" width="10" height="10" rx="2" fill="#EDEFF2"><title>2026-10-13: 0m</title></rect><rect x="577" y="68" width="10" height="10" rx="2" fill="#EDEFF2"><title>2026-10-14: 0m</title></rect><rect x="577" y="81" width="10" height="10" rx="2" fill="#EDEFF2"><title>2026-10-15: 0m</title></rect><rect x="577" y="94" width="10" height="10" rx="2" fill="#EDEFF2"><title>2026-10-16: 0m</title></rect><rect x="577" y="107" width="10" height="10" rx="2" fill="#EDEFF2"><title>2026-10-17: 0m</title></rect><rect x="577" y="120" width="10" height="10" rx="2" fill="#EDEFF2"><title>2026-10-18: 0m</title></rect><rect x="590" y="42" width="10" height="10" rx="2" fill="#EDEFF2"><title>2026-10-19: 0m</title></rect><rect x="590" y="55" width="10" height="10" rx="2" fill="#EDEFF2"><title>2026-10-20: 0m</title></rect><rect x="590" y="68" width="10" height="10" rx="2" fill="#EDEFF2"><title>2026-10-21: 0m</title></rect><rect x="590" y="81" width="10" height="10" rx="2" fill="#EDEFF2"><title>2026-10-22: 0m</title></rect><rect x="590" y="94" width="10" height="10" rx="2" fill="#EDEFF2"><title>2026-10-23: 0m</title></rect><rect x="590" y="107" width="10" height="10" rx="2" fill="#EDEFF2"><title>2026-10-24: 0m</title></rect><rect x="590" y="120" width="10" height="10" rx="2" fill="#EDEFF2"><title>2026-10-25: 0m</title></rect><rect x="603" y="42" width="10" height="10" rx="2" fill="#EDEFF2"><title>2026-10-26: 0m</title></rect><rect x="603" y="55" width="10" height="10" rx="2" fill="#EDEFF2"><title>2026-10-27: 0m</title></rect><rect x="603" y="68" width="10" height="10" rx="2" fill="#EDEFF2"><title>2026-10-28: 0m</title></rect><rect x="603" y="81" width="10" height="10" rx="2" fill="#EDEFF2"><title>2026-10-29: 0m</title></rect><rect x="603" y="94" width="10" height="10" rx="2" fill="#EDEFF2"><title>2026-10-30: 0m</title></rect><rect x="603" y="107" width="10" height="10" rx="2" fill="#EDEFF2"><title>2026-10-31: 0m</title></rect><rect x="603" y="120" width="10" height="10" rx="2" fill="#EDEFF2"><title>2026-11-01: 0m</title></rect><rect x="616" y="42" width="10" height="10" rx="2" fill="#EDEFF2"><title>2026-11-02: 0m</title></rect><rect x="616" y="55" width="10" height="10" rx="2" fill="#EDEFF2"><title>2026-11-03: 0m</title></rect><rect x="616" y="68" width="10" height="10" rx="2" fill="#EDEFF2"><title>2026-11-04: 0m</title></rect><rect x="616" y="81" width="10" height="10" rx="2" fill="#EDEFF2"><title>2026-11-05: 0m</title></rect><rect x="616" y="94" width="10" height="10" rx="2" fill="#EDEFF2"><title>2026-11-06: 0m</title></rect><rect x="616" y="107" width="10" height="10" rx="2" fill="#EDEFF2"><title>2026-11-07: 0m</title></rect><rect x="616" y="120" width="10" height="10" rx="2" fill="#EDEFF2"><title>2026-11-08: 0m</title></rect><rect x="629" y="42" width="10" height="10" rx="2" fill="#EDEFF2"><title>2026-11-09: 0m</title></rect><rect x="629" y="55" width="10" height="10" rx="2" fill="#EDEFF2"><title>2026-11-10: 0m</title></rect><rect x="629" y="68" width="10" height="10" rx="2" fill="#EDEFF2"><title>2026-11-11: 0m</title></rect><rect x="629" y="81" width="10" height="10" rx="2" fill="#EDEFF2"><title>2026-11-12: 0m</title></rect><rect x="629" y="94" width="10" height="10" rx="2" fill="#EDEFF2"><title>2026-11-13: 0m</title></rect><rect x="629" y="107" width="10" height="10" rx="2" fill="#EDEFF2"><title>2026-11-14: 0m</title></rect><rect x="629" y="120" width="10" height="10" rx="2" fill="#EDEFF2"><title>2026-11-15: 0m</title></rect><rect x="642" y="42" width="10" height="10" rx="2" fill="#EDEFF2"><title>2026-11-16: 0m</title></rect><rect x="642" y="55" width="10" height="10" rx="2" fill="#EDEFF2"><title>2026-11-17: 0m</title></rect><rect x="642" y="68" width="10" height="10" rx="2" fill="#EDEFF2"><title>2026-11-18: 0m</title></rect><rect x="642" y="81" width="10" height="10" rx="2" fill="#EDEFF2"><title>2026-11-19: 0m</title></rect><rect x="642" y="94" width="10" height="10" rx="2" fill="#EDEFF2"><title>2026-11-20: 0m</title></rect><rect x="642" y="107" width="10" height="10" rx="2" fill="#EDEFF2"><title>2026-11-21: 0m</title></rect><rect x="642" y="120" width="10" height="10" rx="2" fill="#EDEFF2"><title>2026-11-22: 0m</title></rect><rect x="655" y="42" width="10" height="10" rx="2" fill="#EDEFF2"><title>2026-11-23: 0m</title></rect><rect x="655" y="55" width="10" height="10" rx="2" fill="#EDEFF2"><title>2026-11-24: 0m</title></rect><rect x="655" y="68" width="10" height="10" rx="2" fill="#EDEFF2"><title>2026-11-25: 0m</title></rect><rect x="655" y="81" width="10" height="10" rx="2" fill="#EDEFF2"><title>2026-11-26: 0m</title></rect><rect x="655" y="94" width="10" height="10" rx="2" fill="#EDEFF2"><title>2026-11-27: 0m</title></rect><rect x="655" y="107" width="10" height="10" rx="2" fill="#EDEFF2"><title>2026-11-28: 0m</title></rect><rect x="655" y="120" width="10" height="10" rx="2" fill="#EDEFF2"><title>2026-11-29: 0m</title></rect><rect x="668" y="42" width="10" height="10" rx="2" fill="#EDEFF2"><title>2026-11-30: 0m</title></rect><rect x="668" y="55" width="10" height="10" rx="2" fill="#EDEFF2"><title>2026-12-01: 0m</title></rect><rect x="668" y="68" width="10" height="10" rx="2" fill="#EDEFF2"><title>2026-12-02: 0m</title></rect><rect x="668" y="81" width="10" height="10" rx="2" fill="#EDEFF2"><title>2026-12-03: 0m</title></rect><rect x="668" y="94" width="10" height="10" rx="2" fill="#EDEFF2"><title>2026-12-04: 0m</title></rect><rect x="668" y="107" width="10" height="10" rx="2" fill="#EDEFF2"><title>2026-12-05: 0m</title></rect><rect x="668" y="120" width="10" height="10" rx="2" fill="#EDEFF2"><title>2026-12-06: 0m</title></rect><rect x="681" y="42" width="10" height="10" rx="2" fill="#EDEFF2"><title>2026-12-07: 0m</title></rect><rect x="681" y="55" width="10" height="10" rx="2" fill="#EDEFF2"><title>2026-12-08: 0m</title></rect><rect x="681" y="68" width="10" height="10" rx="2" fill="#EDEFF2"><title>2026-12-09: 0m</title></rect><rect x="681" y="81" width="10" height="10" rx="2" fill="#EDEFF2"><title>2026-12-10: 0m</title></rect><rect x="681" y="94" width="10" height="10" rx="2" fill="#EDEFF2"><title>2026-12-11: 0m</title></rect><rect x="681" y="107" width="10" height="10" rx="2" fill="#EDEFF2"><title>2026-12-12: 0m</title></rect><rect x="681" y="120" width="10" height="10" rx="2" fill="#EDEFF2"><title>2026-12-13: 0m</title></rect><rect x="694" y="42" width="10" height="10" rx="2" fill="#EDEFF2"><title>2026-12-14: 0m</title></rect><rect x="694" y="55" width="10" height="10" rx="2" fill="#EDEFF2"><title>2026-12-15: 0m</title></rect><rect x="694" y="68" width="10" height="10" rx="2" fill="#EDEFF2"><title>2026-12-16: 0m</title></rect><rect x="694" y="81" width="10" height="10" rx="2" fill="#EDEFF2"><title>2026-12-17: 0m</title></rect><rect x="694" y="94" width="10" height="10" rx="2" fill="#EDEFF2"><title>2026-12-18: 0m</title></rect><rect x="694" y="107" width="10" height="10" rx="2" fill="#EDEFF2"><title>2026-12-19: 0m</title></rect><rect x="694" y="120" width="10" height="10" rx="2" fill="#EDEFF2"><title>2026-12-20: 0m</title></rect><rect x="707" y="42" width="10" height="10" rx="2" fill="#EDEFF2"><title>2026-12-21: 0m</title></rect><rect x="707" y="55" width="10" height="10" rx="2" fill="#EDEFF2"><title>2026-12-22: 0m</title></rect><rect x="707" y="68" width="10" height="10" rx="2" fill="#EDEFF2"><title>2026-12-23: 0m</title></rect><rect x="707" y="81" width="10" height="10" rx="2" fill="#EDEFF2"><title>2026-12-24: 0m</title></rect><rect x="707" y="94" width="10" height="10" rx="2" fill="#EDEFF2"><title>2026-12-25: 0m</title></rect><rect x="707" y="107" width="10" height="10" rx="2" fill="#EDEFF2"><title>2026-12-26: 0m</title></rect><rect x="707" y="120" width="10" height="10" rx="2" fill="#EDEFF2"><title>2026-12-27: 0m</title></rect><rect x="720" y="42" width="10" height="10" rx="2" fill="#EDEFF2"><title>2026-12-28: 0m</title></rect><rect x="720" y="55" width="10" height="10" rx="2" fill="#EDEFF2"><title>2026-12-29: 0m</title></rect><rect x="720" y="68" width="10" height="10" rx="2" fill="#EDEFF2"><title>2026-12-30: 0m</title></rect><rect x="720" y="81" width="10" height="10" rx="2" fill="#EDEFF2"><title>2026-12-31: 0m</title></rect><rect x="720" y="94" width="10" height="10" rx="2" fill="#FAFAFA"><title>2027-01-01: 0m</title></rect><rect x="720" y="107" width="10" height="10" rx="2" fill="#FAFAFA"><title>2027-01-02: 0m</title></rect><rect x="720" y="120" width="10" height="10" rx="2" fill="#FAFAFA"><title>2027-01-03: 0m</title></rect></svg>